<svg xmlns="http://www.w3.org/2000/svg" viewBox="0 0 720 400" font-family="-apple-system,BlinkMacSystemFont,'Segoe UI',Helvetica,Arial,sans-serif">
  <defs>
    <linearGradient id="gpuGrad" x1="0" y1="0" x2="0" y2="1">
      <stop offset="0%" stop-color="#58a6ff" stop-opacity="0.9"/>
      <stop offset="100%" stop-color="#58a6ff" stop-opacity="0.6"/>
    </linearGradient>
    <linearGradient id="cpuGrad" x1="0" y1="0" x2="0" y2="1">
      <stop offset="0%" stop-color="#8b949e" stop-opacity="0.9"/>
      <stop offset="100%" stop-color="#8b949e" stop-opacity="0.6"/>
    </linearGradient>
  </defs>
  <rect width="720" height="400" rx="12" fill="#0d1117"/>
  <text x="360" y="35" text-anchor="middle" fill="#e6edf3" font-size="16" font-weight="700">HanFei v0.1.1 — GPU vs CPU (RTX 3090 vs Ryzen 5950X 32T)</text>
  <text x="360" y="55" text-anchor="middle" fill="#8b949e" font-size="12">Best-of-N runs, all results bit-exact. No competing GPU implementation exists for Pallas.</text>
  <text x="18" y="220" text-anchor="middle" fill="#8b949e" font-size="11" transform="rotate(-90,18,220)">Time (ms, lower is better)</text>

  <!-- Chart area: x=70..690, y=75..340. Scale: 1000ms = 265px -->
  <line x1="70" y1="340" x2="690" y2="340" stroke="#30363d" stroke-width="1"/>
  <line x1="70" y1="274" x2="690" y2="274" stroke="#21262d" stroke-width="0.5" stroke-dasharray="4"/>
  <line x1="70" y1="208" x2="690" y2="208" stroke="#21262d" stroke-width="0.5" stroke-dasharray="4"/>
  <line x1="70" y1="142" x2="690" y2="142" stroke="#21262d" stroke-width="0.5" stroke-dasharray="4"/>
  <line x1="70" y1="75" x2="690" y2="75" stroke="#21262d" stroke-width="0.5" stroke-dasharray="4"/>
  <text x="62" y="344" text-anchor="end" fill="#8b949e" font-size="10">0</text>
  <text x="62" y="278" text-anchor="end" fill="#8b949e" font-size="10">250</text>
  <text x="62" y="212" text-anchor="end" fill="#8b949e" font-size="10">500</text>
  <text x="62" y="146" text-anchor="end" fill="#8b949e" font-size="10">750</text>
  <text x="62" y="80" text-anchor="end" fill="#8b949e" font-size="10">1000</text>

  <!-- k=16: CPU=47.6 GPU=35.9 -->
  <rect x="95" y="327.4" width="35" height="12.6" rx="3" fill="url(#cpuGrad)"/>
  <rect x="135" y="330.5" width="35" height="9.5" rx="3" fill="url(#gpuGrad)"/>
  <text x="120" y="358" text-anchor="middle" fill="#8b949e" font-size="11">k=16</text>
  <text x="120" y="372" text-anchor="middle" fill="#3fb950" font-size="10" font-weight="600">1.33x</text>

  <!-- k=17: CPU=85.1 GPU=58.7 -->
  <rect x="195" y="317.4" width="35" height="22.6" rx="3" fill="url(#cpuGrad)"/>
  <rect x="235" y="324.4" width="35" height="15.6" rx="3" fill="url(#gpuGrad)"/>
  <text x="220" y="358" text-anchor="middle" fill="#8b949e" font-size="11">k=17</text>
  <text x="220" y="372" text-anchor="middle" fill="#3fb950" font-size="10" font-weight="600">1.45x</text>

  <!-- k=18: CPU=154.6 GPU=110.7 -->
  <rect x="295" y="299.0" width="35" height="41.0" rx="3" fill="url(#cpuGrad)"/>
  <rect x="335" y="310.7" width="35" height="29.3" rx="3" fill="url(#gpuGrad)"/>
  <text x="320" y="358" text-anchor="middle" fill="#8b949e" font-size="11">k=18</text>
  <text x="320" y="372" text-anchor="middle" fill="#3fb950" font-size="10" font-weight="600">1.40x</text>

  <!-- k=19: CPU=298.5 GPU=175.2 — PEAK -->
  <rect x="395" y="260.9" width="35" height="79.1" rx="3" fill="url(#cpuGrad)"/>
  <rect x="435" y="293.6" width="35" height="46.4" rx="3" fill="url(#gpuGrad)"/>
  <text x="420" y="358" text-anchor="middle" fill="#e6edf3" font-size="11" font-weight="700">k=19</text>
  <text x="420" y="372" text-anchor="middle" fill="#3fb950" font-size="12" font-weight="700">1.70x</text>
  <text x="420" y="253" text-anchor="middle" fill="#3fb950" font-size="9">PEAK</text>

  <!-- k=20: CPU=527.7 GPU=351.7 -->
  <rect x="495" y="200.2" width="35" height="139.8" rx="3" fill="url(#cpuGrad)"/>
  <rect x="535" y="246.8" width="35" height="93.2" rx="3" fill="url(#gpuGrad)"/>
  <text x="520" y="358" text-anchor="middle" fill="#8b949e" font-size="11">k=20</text>
  <text x="520" y="372" text-anchor="middle" fill="#3fb950" font-size="10" font-weight="600">1.50x</text>

  <!-- k=21: CPU=975.5 GPU=740.1 -->
  <rect x="595" y="81.5" width="35" height="258.5" rx="3" fill="url(#cpuGrad)"/>
  <rect x="635" y="143.9" width="35" height="196.1" rx="3" fill="url(#gpuGrad)"/>
  <text x="620" y="358" text-anchor="middle" fill="#8b949e" font-size="11">k=21</text>
  <text x="620" y="372" text-anchor="middle" fill="#3fb950" font-size="10" font-weight="600">1.32x</text>

  <!-- Legend -->
  <rect x="260" y="388" width="14" height="8" rx="2" fill="#8b949e"/>
  <text x="280" y="396" fill="#8b949e" font-size="10">CPU (halo2curves, 32T)</text>
  <rect x="420" y="388" width="14" height="8" rx="2" fill="#58a6ff"/>
  <text x="440" y="396" fill="#58a6ff" font-size="10">GPU (HanFei, RTX 3090)</text>
</svg>
